# xmcd
#
# Track frame offsets: 
#        150
#        17815
#        38889
#        58416
#        74927
#        97403
#        117105
#        135398
#        151288
#        168359
#        187283
#        207306
#        229282
#        244620
#        265178
#        281455
#        297466
#        314777
#
# Disc length: 4392 seconds
#
# Revision: 0
# Processed by: cddbd v1.5.2PL0 Copyright (c) Steve Scherf et al.
# Submitted via: ExactAudioCopy v1.0b1
#
DISCID=25112612
DTITLE=Various Artist - 天籟之愛藏歌魂 Disc 2
DYEAR=2011
DGENRE=藏歌
TTITLE0=我從雪山來
TTITLE1=我們好好愛
TTITLE2=拉薩之戀
TTITLE3=遇見你
TTITLE4=高原藍
TTITLE5=藏香依舊
TTITLE6=高原女人
TTITLE7=香巴拉戀曲
TTITLE8=春天裹的心跳
TTITLE9=幸福香巴拉
TTITLE10=姑娘我愛你
TTITLE11=卓瑪
TTITLE12=遇上你是我的縁
TTITLE13=走天涯
TTITLE14=兄弟情
TTITLE15=坐上火車去拉薩
TTITLE16=愛琴海
TTITLE17=光芒
EXTD=
EXTT0=
EXTT1=
EXTT2=
EXTT3=
EXTT4=
EXTT5=
EXTT6=
EXTT7=
EXTT8=
EXTT9=
EXTT10=
EXTT11=
EXTT12=
EXTT13=
EXTT14=
EXTT15=
EXTT16=
EXTT17=
PLAYORDER=
